<svg width="24" height="24" viewBox="0 0 24 24" fill="none" xmlns="http://www.w3.org/2000/svg">
<g clip-path="url(#clip0_8001_744)">
<path opacity="0.998" fill-rule="evenodd" clip-rule="evenodd" d="M3.70961 1.99139C4.05729 1.94688 4.35354 2.0471 4.59838 2.29199C5.64295 3.8835 6.68176 5.47897 7.71483 7.0784C7.81724 7.47696 7.77878 7.86235 7.59941 8.23453C7.03388 9.1981 6.44521 10.1461 5.83342 11.0786C6.09001 11.7546 6.42474 12.3867 6.83761 12.9747C7.93352 14.5194 9.2455 15.849 10.7736 16.9634C11.4331 17.4383 12.1449 17.8198 12.9089 18.1079C13.7608 17.5554 14.6187 17.012 15.4829 16.4778C15.7426 16.3243 16.0196 16.2164 16.3139 16.1541C16.4601 16.1387 16.6064 16.1387 16.7526 16.1541C16.8245 16.1786 16.8938 16.2094 16.9603 16.2466C18.5517 17.278 20.1369 18.3185 21.7158 19.3681C21.8797 19.5557 21.9642 19.7754 21.9697 20.0271C21.9531 20.3091 21.8723 20.5712 21.7273 20.8133C21.0761 21.7047 20.349 22.5334 19.5458 23.299C19.2691 23.5531 18.9613 23.7612 18.6224 23.9233C18.4692 23.9483 18.3153 23.9675 18.1607 23.9811C17.0528 23.9527 15.9832 23.733 14.9519 23.3221C13.4012 22.6886 11.9623 21.8714 10.6351 20.8711C7.60255 18.5813 4.96702 15.9029 2.72851 12.836C1.91324 11.6811 1.22838 10.4479 0.673954 9.13632C0.229525 8.05889 -0.00518101 6.93744 -0.0301334 5.77196C-0.0335107 5.54318 0.0242083 5.33124 0.143003 5.13609C0.378261 4.78471 0.639881 4.45329 0.927888 4.14181C1.65774 3.37166 2.46185 2.69726 3.34025 2.11857C3.46367 2.06839 3.58678 2.02601 3.70961 1.99139Z" fill="#F5EABD"/>
<path opacity="0.999" fill-rule="evenodd" clip-rule="evenodd" d="M15.3333 0.990005C15.3777 1.56071 15.3925 2.13966 15.3779 2.72685C16.8657 2.71592 18.353 2.7275 19.8398 2.76158C21.2101 3.0647 22.1062 3.90996 22.5281 5.29737C22.5693 5.46506 22.599 5.63488 22.6173 5.80685C22.6285 7.86788 22.6322 9.92893 22.6285 11.99C21.8848 11.99 21.1412 11.99 20.3975 11.99C20.4012 10.0602 20.3975 8.13035 20.3864 6.20053C20.3469 5.61149 20.0532 5.23709 19.5051 5.07737C18.1298 5.04352 16.7541 5.03194 15.3779 5.04264C15.3853 5.62179 15.3779 6.20074 15.3556 6.77948C14.1088 5.81993 12.8669 4.85501 11.6299 3.88474C12.865 2.91961 14.0995 1.95472 15.3333 0.990005Z" fill="#F5EABD"/>
</g>
<defs>
<clipPath id="clip0_8001_744">
<rect width="24" height="24" fill="white"/>
</clipPath>
</defs>
</svg>
