<svg width="24" height="24" viewBox="0 0 24 24" fill="none" xmlns="http://www.w3.org/2000/svg">
<path d="M13.1109 23.4607C15.5156 20.4435 21 13.1309 21 9.02335C21 4.04171 16.9688 0 12 0C7.03125 0 3 4.04171 3 9.02335C3 13.1309 8.48438 20.4435 10.8891 23.4607C11.4656 24.1798 12.5344 24.1798 13.1109 23.4607ZM12 6.01557C12.7956 6.01557 13.5587 6.33246 14.1213 6.89653C14.6839 7.4606 15 8.22564 15 9.02335C15 9.82106 14.6839 10.5861 14.1213 11.1502C13.5587 11.7142 12.7956 12.0311 12 12.0311C11.2044 12.0311 10.4413 11.7142 9.87868 11.1502C9.31607 10.5861 9 9.82106 9 9.02335C9 8.22564 9.31607 7.4606 9.87868 6.89653C10.4413 6.33246 11.2044 6.01557 12 6.01557Z" fill="#651A15"/>
</svg>
