<svg width="60" height="60" viewBox="0 0 60 60" fill="none" xmlns="http://www.w3.org/2000/svg">
<path d="M33.186 10.9156C27.0461 4.77594 17.0563 4.77607 10.9167 10.9156C7.94259 13.8898 6.30469 17.844 6.30469 22.0502C6.30469 26.2563 7.94259 30.2105 10.9167 33.1847C13.9869 36.2549 18.0184 37.7894 22.0513 37.7894C26.0833 37.7894 30.1165 36.2542 33.186 33.1847C36.1601 30.2105 37.798 26.2563 37.798 22.0502C37.798 17.844 36.1601 13.8897 33.186 10.9156ZM31.6989 31.6977C26.3794 37.0174 17.7234 37.0172 12.4038 31.6977C9.82679 29.1207 8.40759 25.6944 8.40759 22.0501C8.40759 18.4056 9.82679 14.9795 12.4038 12.4025C15.0637 9.74273 18.5575 8.41278 22.0513 8.41278C25.5452 8.41278 29.0392 9.74273 31.6989 12.4025C34.2759 14.9795 35.6951 18.4056 35.6951 22.0501C35.6951 25.6944 34.2759 29.1207 31.6989 31.6977Z" fill="#F5EABD"/>
<path d="M22.0515 9.5979C21.4708 9.5979 21 10.0687 21 10.6494C21 11.23 21.4708 11.7008 22.0515 11.7008C27.7581 11.7008 32.4009 16.3435 32.4009 22.0502C32.4009 22.6309 32.8717 23.1017 33.4523 23.1017C34.033 23.1017 34.5038 22.6309 34.5038 22.0502C34.5038 15.1839 28.9177 9.5979 22.0515 9.5979Z" fill="#F5EABD"/>
<path d="M57.9205 47.8715L41.8429 31.794C43.3199 28.8008 44.1017 25.4857 44.1017 22.0502C44.1017 16.1604 41.8081 10.6232 37.6433 6.45841C33.4786 2.29361 27.9414 0 22.0516 0C16.1617 0 10.6245 2.29361 6.45987 6.45827C2.29507 10.6231 0.00146484 16.1603 0.00146484 22.0501C0.00146484 27.9399 2.29507 33.4771 6.45987 37.6418C10.6245 41.8066 16.1617 44.1002 22.0516 44.1002C25.4872 44.1002 28.8022 43.3185 31.7954 41.8416L47.8728 57.919C49.2148 59.261 50.9989 60 52.8968 60C54.7944 60 56.5787 59.261 57.9206 57.919C60.6906 55.1489 60.6906 50.6417 57.9205 47.8715ZM9.24793 34.8539C5.82795 31.4339 3.94441 26.8868 3.94441 22.0502C3.94441 17.2136 5.82795 12.6666 9.24793 9.24646C12.6679 5.82648 17.2149 3.94294 22.0516 3.94294C26.8881 3.94294 31.4353 5.82648 34.8552 9.24646C38.2752 12.6664 40.1587 17.2136 40.1587 22.0501C40.1587 26.8867 38.2753 31.4338 34.8552 34.8538C31.4353 38.2737 26.8881 40.1573 22.0516 40.1573C17.2149 40.1573 12.6679 38.2739 9.24793 34.8539ZM55.1325 55.131C54.5352 55.7282 53.7413 56.0571 52.8967 56.0571C52.0521 56.0571 51.2581 55.7282 50.6609 55.131L35.2487 39.7188C36.0878 39.0894 36.8883 38.3969 37.6433 37.6419C38.3982 36.887 39.0907 36.0865 39.7202 35.2474L55.1323 50.6596C56.3652 51.8923 56.3652 53.8983 55.1325 55.131Z" fill="#F5EABD"/>
</svg>
